<svg width="91" height="103" viewBox="0 0 91 103" fill="none" xmlns="http://www.w3.org/2000/svg">
<path d="M8.22847 34.5059L24.629 34.4549L24.6307 33.8841L24.6816 18.3942C24.6818 18.3235 24.6827 18.0517 24.6827 18.0517L40.9744 18.001L57.3266 34.3532L76.6898 34.293C76.7713 34.2928 77.0322 34.2974 77.0322 34.2974L77.0319 34.4061C77.0319 34.4061 77.0314 34.5638 77.0312 34.6344L76.9812 50.6979L60.9178 50.7478L44.3373 34.3963L24.6317 34.4576L40.7556 50.8105L8.17746 50.9118L8.2274 34.8484" fill="black"/>
<path d="M14.2295 69.041L13.9434 52.6415L30.0069 52.5916L46.5874 68.9431L66.293 68.8818L50.1691 52.5289L82.7472 52.4276L82.6972 68.4911" fill="black"/>
<path d="M82.5812 68.4172L66.5178 68.4672L66.1742 68.8107L66.1253 84.5317C66.1251 84.6024 66.1133 84.9231 66.1133 84.9231L49.8325 84.9248L33.4803 68.5726L14.1172 68.6328" fill="black"/>
</svg>
