<svg width="134" height="34" viewBox="0 0 134 34" fill="none" xmlns="http://www.w3.org/2000/svg">
<path d="M39.7539 23.072V11.1277H46.492C47.612 11.1277 48.4838 11.2124 49.1062 11.3832C49.7286 11.554 50.2174 11.8714 50.5725 12.3369C50.7557 12.5874 50.8843 12.8505 50.9581 13.1287C51.0319 13.407 51.0701 13.7283 51.0701 14.0913C51.0701 15.5687 50.3154 16.4832 48.8071 16.8348C49.6306 16.9828 50.2441 17.3484 50.6501 17.934C51.0561 18.5196 51.2585 19.2204 51.2585 20.0388C51.2585 20.3449 51.2127 20.6636 51.121 20.9925C51.0294 21.3226 50.8919 21.606 50.7099 21.845C50.3548 22.3333 49.8381 22.6596 49.1584 22.8253C48.4788 22.9897 47.6005 23.072 46.5263 23.072H39.7539ZM40.0976 16.6312H46.6638C47.7265 16.6312 48.5208 16.5464 49.0464 16.3757C49.5721 16.2049 49.9895 15.9216 50.2975 15.5231C50.5725 15.1601 50.7086 14.6883 50.7086 14.109C50.7086 13.4955 50.5775 13.0124 50.3141 12.6607C49.9933 12.2408 49.5504 11.9562 48.9853 11.8082C48.4189 11.6602 47.5764 11.5868 46.4563 11.5868H40.095V16.6299L40.0976 16.6312ZM40.0976 22.6128H46.5441C47.6756 22.6128 48.5297 22.5394 49.1075 22.3914C49.6841 22.2435 50.1334 21.9487 50.4528 21.506C50.7379 21.1202 50.8817 20.6257 50.8817 20.0236C50.8817 19.7504 50.8448 19.4696 50.7697 19.1799C50.6959 18.8903 50.6005 18.6322 50.4872 18.4045C50.2695 17.9732 49.9615 17.6633 49.5619 17.4761C49.1622 17.2889 48.7651 17.1776 48.3706 17.1435C47.976 17.1093 47.4134 17.0929 46.6816 17.0929H40.0976V22.6141V22.6128Z" fill="white"/>
<path d="M60.2617 11.1277H66.9998C68.1198 11.1277 68.9917 11.2099 69.614 11.3743C70.2364 11.5388 70.7252 11.8537 71.0803 12.3205C71.2636 12.5823 71.3921 12.8517 71.4659 13.13C71.5397 13.4083 71.5779 13.7295 71.5779 14.0926V14.6213C71.5779 14.9856 71.541 15.3056 71.4659 15.5839C71.3921 15.8621 71.2623 16.1316 71.0803 16.3934C70.7379 16.8589 70.2517 17.1751 69.6229 17.3395C68.9942 17.5039 68.1198 17.5862 66.9998 17.5862H66.4003L71.373 23.0732H70.8244L65.8695 17.5862H60.6054L60.6219 23.0732H60.2617V11.1277ZM66.9654 17.1257C68.0969 17.1257 68.9458 17.0524 69.5109 16.9044C70.0773 16.7564 70.5139 16.4731 70.8232 16.0519C71.0854 15.7002 71.2177 15.217 71.2177 14.6036V14.0926C71.2177 13.5019 71.0866 13.025 70.8232 12.6607C70.5152 12.2408 70.0773 11.9562 69.5109 11.8082C68.9446 11.6602 68.0969 11.5868 66.9654 11.5868H60.6041V17.1245H66.9654V17.1257Z" fill="white"/>
<path d="M80.5938 23.0718L87.2809 11.1099L94.0024 23.0718H93.5569L90.6423 17.8403L83.9208 17.8567L81.0061 23.0706H80.595L80.5938 23.0718ZM84.1435 17.4672H90.4183L87.2809 11.8448L84.1435 17.4672Z" fill="white"/>
<path d="M103.004 11.1277H113.652V11.5881H103.348V16.6312H111.201V17.0916H103.348V22.6128H113.635V23.0732H103.005V11.1277H103.004Z" fill="white"/>
<path d="M133.796 11.1277L123.354 16.6995L133.624 23.072H133.007L122.994 16.8867L123.01 23.072H122.668V11.1277H122.994L123.01 16.4946L133.074 11.1277H133.795H133.796Z" fill="white"/>
<path d="M2.71615 11.3903L8.12983 11.3735L8.13042 11.185L8.14721 6.07193C8.14729 6.0486 8.14756 5.95888 8.14756 5.95888L13.5254 5.94216L18.9231 11.3399L25.3147 11.32C25.3416 11.3199 25.4278 11.3215 25.4278 11.3215L25.4276 11.3574C25.4276 11.3574 25.4275 11.4094 25.4274 11.4327L25.4109 16.7351L20.1085 16.7516L14.6354 11.3541L8.13073 11.3744L13.4531 16.7723L2.69932 16.8058L2.7158 11.5033" fill="#DB0639"/>
<path d="M4.69723 22.79L4.60281 17.3767L9.90524 17.3602L15.3783 22.7577L21.883 22.7375L16.5606 17.3395L27.3144 17.3061L27.2979 22.6085" fill="#DB0639"/>
<path d="M27.2596 22.5841L21.9572 22.6006L21.8438 22.714L21.8277 27.9034C21.8276 27.9267 21.8237 28.0326 21.8237 28.0326L16.4495 28.0331L11.0518 22.6354L4.66016 22.6553" fill="#DB0639"/>
</svg>
